<?xml version="1.0" encoding="utf-8"?>
<!-- Generator: Adobe Illustrator 16.0.0, SVG Export Plug-In . SVG Version: 6.00 Build 0)  -->
<!DOCTYPE svg PUBLIC "-//W3C//DTD SVG 1.1//EN" "http://www.w3.org/Graphics/SVG/1.1/DTD/svg11.dtd">
<svg version="1.1" id="Calque_1" xmlns="http://www.w3.org/2000/svg" xmlns:xlink="http://www.w3.org/1999/xlink" x="0px" y="0px"
	 width="100px" height="100px" viewBox="0 0 100 100" enable-background="new 0 0 100 100" xml:space="preserve">
<g>
	<circle fill="#BF3048" cx="49.931" cy="50.069" r="49.931"/>
	<path fill="#FFFFFF" d="M71.331,56.398C62.564,66.92,53.464,60.943,50.502,58.5c2.292-2.499,3.331-3.863,7.309-7.137
		c4.114,1.679,11.459-1.508,11.459-1.508c-4.944,1.295-8.722,0.562-10.063,0.206c0.284-0.225,5.162-3.758,6.639-5.798
		c4.083,0.125,7.458-3.382,7.458-3.382c-0.117-0.092-2.177,1.489-6.086,1.678c4.045-5.939,3.861-11.404,3.861-11.404
		s-1.494,4.987-5.291,10.458c-0.78-3.883,0.212-6.522,0.097-6.613c0,0-2.641,4.361-1.425,8.369
		c-2.076,2.374-5.352,4.423-6.557,5.341c-0.092-0.248-1.35-4.387-0.126-10.507c0,0-3.329,7.693-1.248,11.685
		c-2.553,1.959-3.231,2.444-7.492,7.207c-9.649-7.223-1.363-20.139,5.864-23.153c7.43-3.098,10.529-2.476,17.338-13.624
		C79.695,31.365,78.478,47.82,71.331,56.398z M30.147,55.277c4.388,2.007,7.433,4.729,9.524,7.337
		c0.024-0.078,0.058-0.14,0.081-0.229c3.975-14.295-17.867-12.309-17.867-12.309s3.017,4.643,4.7,9.706
		c1.945,5.867,9.896,10.749,12.751,3.78C37.275,60.785,34.325,57.748,30.147,55.277z M50.502,58.491
		c-0.031-0.024-1.509-1.357-1.489-1.38c-3.745,4.123-5.205,7.646-5.56,12.13c-0.567-1.542-1.699-4.014-3.786-6.624
		c-0.097,0.342-0.214,0.65-0.335,0.946c2.219,2.986,3.079,7.062,3.583,8.395c0,3.729,0.407,5.595,0.735,8.704
		c0,0,2.006,1.182,2.565-1.028C45.09,77.764,43.978,64.882,50.502,58.491z"/>
</g>
</svg>
