<?xml version="1.0" encoding="utf-8"?>
<!-- Generator: Adobe Illustrator 16.0.0, SVG Export Plug-In . SVG Version: 6.00 Build 0)  -->
<!DOCTYPE svg PUBLIC "-//W3C//DTD SVG 1.1//EN" "http://www.w3.org/Graphics/SVG/1.1/DTD/svg11.dtd">
<svg version="1.1" id="Calque_1" xmlns="http://www.w3.org/2000/svg" xmlns:xlink="http://www.w3.org/1999/xlink" x="0px" y="0px"
	 width="100px" height="100px" viewBox="0 0 100 100" enable-background="new 0 0 100 100" xml:space="preserve">
<g>
	<circle fill="#BF3048" cx="50.128" cy="49.872" r="50.128"/>
	<g>
		<path fill="#FFFFFF" d="M36.38,76.248l20.161-16.309c0.827-0.665,0.329-1.902-0.785-1.964l-1.534-0.084
			c-1.043-0.056-1.573-1.171-0.883-1.872l10.817-10.996c0.69-0.701,0.166-1.816-0.886-1.874l-5.125-0.278
			c-1.032-0.053-1.565-1.141-0.905-1.851l13.864-14.856c0.659-0.708,0.127-1.796-0.904-1.852l-20.597-1.111
			c-0.476-0.025-0.927,0.193-1.155,0.563L37.393,41.518c-0.454,0.725,0.106,1.633,1.032,1.686l4.644,0.249
			c0.927,0.05,1.486,0.958,1.033,1.685l-7.559,12.138c-0.454,0.727,0.106,1.635,1.033,1.686l4.375,0.237
			c0.926,0.051,1.48,0.947,1.04,1.674l-8.55,13.986C33.76,75.969,35.335,77.095,36.38,76.248z"/>
	</g>
</g>
</svg>
