<?xml version="1.0" encoding="utf-8"?>
<!-- Generator: Adobe Illustrator 16.0.0, SVG Export Plug-In . SVG Version: 6.00 Build 0)  -->
<!DOCTYPE svg PUBLIC "-//W3C//DTD SVG 1.1//EN" "http://www.w3.org/Graphics/SVG/1.1/DTD/svg11.dtd">
<svg version="1.1" id="Calque_1" xmlns="http://www.w3.org/2000/svg" xmlns:xlink="http://www.w3.org/1999/xlink" x="0px" y="0px"
	 width="100px" height="100px" viewBox="0 0 100 100" enable-background="new 0 0 100 100" xml:space="preserve">
<g>
	<path fill="#BF3048" d="M99.947,50.804c0,26.233-22.365,47.497-49.947,47.497c-27.586,0-49.947-21.264-49.947-47.497
		C0.053,24.573,22.414,3.309,50,3.309C77.582,3.309,99.947,24.573,99.947,50.804z"/>
	<g>
		<g id="Layer_5_1_">
			<path fill="#FFFFFF" d="M74.255,31.388c0.234,0.557-0.089,1.013-0.72,1.013H26.463c-0.63,0-0.967-0.462-0.747-1.024l3.463-8.865
				c0.22-0.563,0.915-1.023,1.545-1.023h38.185c0.631,0,1.34,0.456,1.578,1.011L74.255,31.388z"/>
			<path fill="#FFFFFF" d="M25.316,37.967c0,2.183,1.861,3.954,4.159,3.954c1.728,0,3.21-1.002,3.836-2.43
				c0.126-0.283,0.413-0.28,0.538,0.005c0.629,1.423,2.108,2.424,3.835,2.424c1.734,0,3.22-1.01,3.844-2.443
				c0.12-0.28,0.395-0.302,0.51-0.033c0.615,1.451,2.11,2.476,3.856,2.476c1.747,0,3.241-1.023,3.857-2.476
				c0.114-0.269,0.384-0.269,0.496,0c0.615,1.453,2.109,2.476,3.857,2.476c1.745,0,3.24-1.023,3.856-2.476
				c0.117-0.269,0.381-0.269,0.496,0c0.615,1.451,2.111,2.476,3.858,2.476c1.745,0,3.24-1.023,3.854-2.476
				c0.114-0.269,0.381-0.269,0.496,0c0.615,1.453,2.111,2.476,3.858,2.476c2.295,0,4.157-1.771,4.157-3.954v-1.671
				c0,0,0-0.781-0.864-0.781c-11.84,0-35.297,0-47.35,0c-1.151,0-1.151,0.812-1.151,0.812V37.967z"/>
			<path fill="#FFFFFF" d="M73.475,74.742c0-0.002,0.002-0.002,0.002-0.002V59.063c0-0.951-0.819-1.73-1.816-1.73H28.34
				c-0.999,0-1.818,0.779-1.818,1.73V74.74c0,0.104,0,0.559,0,0.691c0,1.688,1.438,3.053,3.212,3.053
				c1.217,0,2.273-0.645,2.818-1.592c0.078-0.135,0.133-0.424,0.906-0.424h33.134c0.727,0,0.861,0.287,0.937,0.416
				c0.544,0.955,1.603,1.6,2.82,1.6c1.775,0,3.128-1.365,3.128-3.053C73.477,75.191,73.475,75.131,73.475,74.742z"/>
			<path fill="#FFFFFF" d="M34.938,44.609c-0.022-0.282-0.268-0.507-0.568-0.507h-1.658c-0.315,0-0.572,0.247-0.572,0.546v0.006
				v9.031v0.008c0,0.297,0.257,0.543,0.572,0.543h1.658c0.3,0,0.546-0.225,0.568-0.506c0.002-0.006,0.005-0.01,0.005-0.016v-0.021
				v-9.045v-0.026C34.943,44.618,34.94,44.614,34.938,44.609z"/>
			<path fill="#FFFFFF" d="M68.012,44.609c-0.021-0.282-0.269-0.507-0.567-0.507h-1.658c-0.316,0-0.574,0.247-0.574,0.546v0.006
				v9.031v0.008c0,0.297,0.258,0.543,0.574,0.543h1.658c0.299,0,0.546-0.225,0.567-0.506c0.003-0.006,0.005-0.01,0.005-0.016v-0.021
				v-9.045v-0.026C68.017,44.618,68.015,44.614,68.012,44.609z"/>
		</g>
	</g>
	<rect x="37.46" y="60.857" fill="none" width="50.847" height="21.064"/>
	<text transform="matrix(1.0516 0 0 1 37.4604 71.1348)" fill="#BF3048" font-family="'SegoeUI-Bold'" font-size="13.8832">Fair</text>
</g>
</svg>
