<?xml version="1.0" encoding="utf-8"?>
<!-- Generator: Adobe Illustrator 16.0.0, SVG Export Plug-In . SVG Version: 6.00 Build 0)  -->
<!DOCTYPE svg PUBLIC "-//W3C//DTD SVG 1.1//EN" "http://www.w3.org/Graphics/SVG/1.1/DTD/svg11.dtd">
<svg version="1.1" id="Calque_1" xmlns="http://www.w3.org/2000/svg" xmlns:xlink="http://www.w3.org/1999/xlink" x="0px" y="0px"
	 width="100px" height="100px" viewBox="0 0 100 100" enable-background="new 0 0 100 100" xml:space="preserve">
<g id="Logo">
	<path fill-rule="evenodd" clip-rule="evenodd" fill="#C0334B" d="M11.485,38.284c-2.629,6.29-5.221,12.594-7.462,19.034
		c-0.68,1.963-1.307,3.939-1.789,5.96c-0.035,0.153-0.072,0.312-0.089,0.469c-0.096,0.84-0.121,0.855-0.912,0.561
		c-0.871-0.325-1.329-1.36-1.215-2.658c0.145-1.7,0.654-3.306,1.268-4.885c1.886-4.855,4.298-9.459,6.733-14.06
		c2.037-3.848,4.264-7.6,6.014-11.595c0.315-0.72,0.688-1.455,0.522-2.297c-0.057-0.293,0.171-0.27,0.345-0.281
		c1.277-0.082,2.292,0.472,3.193,1.308c0.301,0.278,0.109,0.552,0.011,0.815c-1.019,2.734-2.099,5.447-3.059,8.202
		c-1.891,5.427-3.879,10.823-5.286,16.405c-0.107,0.423-0.27,0.855-0.146,1.414c0.514-0.519,0.776-1.098,1.099-1.628
		c4.062-6.659,8.094-13.337,11.868-20.168c0.827-1.498,1.615-3.017,2.211-4.626c0.097-0.256,0.194-0.514,0.261-0.778
		c0.217-0.838,0.284-0.905,1.151-0.731c1.015,0.205,1.975,0.541,2.758,1.269c0.423,0.395,0.496,0.75,0.198,1.304
		c-4.089,7.592-8.042,15.255-11.835,23C16.5,56,15.654,57.668,15.064,59.451c-0.122,0.369-0.238,0.737-0.324,1.114
		c-0.059,0.258-0.152,0.564,0.093,0.772c0.251,0.215,0.525,0.048,0.773-0.048c0.369-0.14,0.684-0.379,0.952-0.652
		c2.553-2.589,4.306-5.639,5.214-9.163c0.161-0.628,0.182-1.266-0.307-1.884c0.679-0.136,1.307-0.082,1.923-0.058
		c0.465,0.017,0.681-0.164,0.877-0.565c1.068-2.183,2.326-4.239,4.115-5.924c0.521-0.488,1.102-0.876,1.741-1.191
		c0.861-0.418,1.682-0.394,2.451,0.173c0.283,0.208,0.539,0.254,0.883,0.189c1.872-0.355,2.972,0.518,3.012,2.428
		c0.031,1.383-0.335,2.708-0.796,4.003c-0.888,2.484-2.128,4.79-3.564,6.998c-0.149,0.233-0.456,0.465-0.195,0.783
		c0.23,0.279,0.575,0.26,0.89,0.198c0.563-0.116,0.985-0.479,1.349-0.888c0.954-1.073,1.655-2.286,1.982-3.698
		c0.179-0.784,0.214-1.536-0.386-2.357c0.81,0,1.506-0.024,2.196,0.009c0.465,0.022,0.728-0.134,0.969-0.552
		c1.427-2.479,3.198-4.661,5.617-6.25c1.042-0.686,2.174-1.165,3.42-1.302c0.324-0.036,0.475-0.204,0.625-0.448
		c0.446-0.724,0.973-1.376,1.679-1.871c0.703-0.489,1.444-0.504,2.208-0.189c0.185,0.076,0.422,0.14,0.212,0.432
		c-1.029,1.428-1.471,3.122-2.114,4.722c-0.967,2.415-1.835,4.873-3.37,7.011c-0.589,0.82-1.265,1.554-2.081,2.158
		c-0.646,0.479-1.378,0.674-2.191,0.68c2.41-3.079,2.892-6.943,4.381-10.381c0.023-0.054,0.009-0.127,0.013-0.232
		c-0.306-0.004-0.436,0.236-0.592,0.396c-1.849,1.891-3.293,4.079-4.568,6.379c-1.33,2.4-2.519,4.863-3.105,7.568
		c-0.166,0.777-0.296,1.562-0.143,2.369c0.275,1.438,1.239,2.021,2.653,1.592c0.788-0.241,1.414-0.748,1.991-1.29
		c2.432-2.276,4.306-4.955,5.581-8.03c0.377-0.91,0.791-1.867,0.22-3.033c0.722,0,1.372-0.012,2.019,0.005
		c0.338,0.009,0.543-0.092,0.687-0.419c2.727-6.205,5.884-12.204,8.689-18.371c0.583-1.284,1.186-2.57,1.461-3.971
		c0.031-0.157,0.101-0.331,0.058-0.469c-0.191-0.664,0.163-0.701,0.663-0.633c1.226,0.162,2.351,0.54,3.268,1.414
		c0.303,0.292,0.376,0.559,0.135,0.957c-3.354,5.549-6.3,11.32-9.27,17.078c-0.961,1.865-1.868,3.757-2.801,5.638
		c-0.046,0.098-0.115,0.199-0.021,0.361c0.526-0.164,0.911-0.561,1.293-0.917c2.486-2.319,4.59-4.942,6.235-7.923
		c0.167-0.298,0.359-0.612,0.405-0.938c0.106-0.822,0.602-0.72,1.155-0.566c1.688,0.469,2.243,1.627,1.438,3.18
		c-0.932,1.802-2.41,3.138-3.983,4.363c-0.86,0.672-1.774,1.279-2.686,1.885c-0.402,0.266-0.341,0.42,0.049,0.578
		c0.493,0.199,0.929,0.48,1.341,0.81c0.459,0.367,0.563,0.73,0.231,1.289c-1.056,1.789-1.954,3.659-2.669,5.616
		c-0.235,0.643-0.448,1.295-0.424,1.994c0.023,0.673,0.355,0.886,0.995,0.646c0.568-0.213,1.042-0.582,1.437-1.025
		c2.141-2.403,3.715-5.126,4.496-8.265c0.16-0.639,0.247-1.31-0.086-1.939c-0.196-0.366,0.041-0.374,0.295-0.375
		c0.777-0.004,1.554,0.006,2.33-0.013c0.492-0.013,0.531,0.17,0.349,0.576c-1.028,2.293-2.135,4.545-3.49,6.661
		c-1.001,1.558-2.03,3.092-3.396,4.364c-0.86,0.798-1.798,1.462-2.966,1.761c-1.903,0.489-3.095-0.561-2.866-2.509
		c0.252-2.136,1.15-4.071,1.826-6.075c0.329-0.97,0.711-1.921,0.798-3.038c-0.987,0.438-1.915,0.846-2.833,1.276
		c-0.127,0.063-0.232,0.222-0.297,0.361c-1.374,2.956-2.812,5.886-3.83,8.993c-0.071,0.216-0.152,0.443-0.152,0.664
		c0.003,0.708-0.384,0.489-0.688,0.273c-0.454-0.321-0.514-0.84-0.526-1.348c-0.037-1.417,0.357-2.751,0.756-4.085
		c0.129-0.43,0.334-0.842,0.352-1.32c-0.319,0.002-0.371,0.261-0.49,0.425c-1.267,1.763-2.585,3.488-4.291,4.856
		c-1.254,1.011-2.59,1.861-4.31,1.823c-1.938-0.04-3.268-1.052-3.789-2.933c-0.421-1.521-0.224-3.029,0.063-4.539
		c0.036-0.191,0.163-0.379,0.021-0.589c-0.271,0.068-0.372,0.317-0.524,0.503c-0.494,0.604-1.041,1.148-1.683,1.596
		c-0.903,0.624-1.872,0.976-2.959,0.549c-0.408-0.16-0.519,0.113-0.704,0.337c-1.286,1.548-2.64,3.023-4.343,4.137
		c-0.653,0.427-1.346,0.773-2.104,0.961c-1.353,0.339-2.345-0.253-2.703-1.602c-0.44-1.665-0.147-3.303,0.186-4.942
		c0.029-0.128,0.052-0.262-0.017-0.443c-0.574,0.828-1.143,1.662-1.727,2.485c-1.169,1.647-2.486,3.149-4.288,4.149
		c-0.506,0.277-1.053,0.44-1.623,0.5c-1.016,0.114-1.609-0.391-1.697-1.412c-0.084-0.971,0.148-1.9,0.415-2.826
		c0.635-2.2,1.586-4.272,2.542-6.345c1.376-2.982,2.761-5.96,4.142-8.94c0.014-0.003,0.043-0.006,0.043-0.012
		c0.004-0.027,0.001-0.055,0-0.083c0.072-0.152,0.145-0.304,0.216-0.456c0.588-1.017,1.083-2.079,1.439-3.202
		c0.035-0.009,0.065-0.029,0.086-0.058c0.417-0.582,0.634-1.255,0.895-1.909c0.335-0.356,0.484-0.796,0.544-1.277
		c-0.339,0.373-0.602,0.79-0.747,1.274c-0.237,0.567-0.678,1.029-0.828,1.64c-0.023,0.072-0.045,0.146-0.066,0.219
		c-0.635,1.002-1.178,2.057-1.668,3.138c-1.33,2.282-2.645,4.57-3.992,6.842c-2.526,4.253-5.07,8.494-7.826,12.602
		c-0.205,0.308-0.349,0.918-0.79,0.767c-0.463-0.16-0.414-0.763-0.406-1.217c0.04-2.223,0.513-4.383,0.997-6.539
		c1.077-4.824,2.401-9.585,3.902-14.296c0.061-0.042,0.093-0.093,0.045-0.165c0.029-0.084,0.055-0.17,0.083-0.254
		c0.101-0.077,0.132-0.171,0.085-0.291c0.017-0.041,0.031-0.084,0.042-0.128c0.116-0.07,0.137-0.166,0.082-0.284
		c0.025-0.082,0.052-0.164,0.078-0.246c0.149-0.17,0.27-0.349,0.184-0.593c0.109-0.35,0.219-0.7,0.331-1.048
		c0.374-0.645,0.534-1.358,0.672-2.084c-0.385,0.681-0.854,1.316-1.038,2.091l-0.004,0.009
		C11.562,38.196,11.523,38.24,11.485,38.284z M33.207,43.813c-0.899,0.194-1.49,0.787-2.032,1.423
		c-2.511,2.945-4.291,6.336-5.884,9.828c-0.735,1.616-1.439,3.256-1.69,5.041c-0.08,0.563-0.26,1.215,0.298,1.571
		c0.54,0.348,1.108-0.027,1.593-0.315c1.374-0.813,2.317-2.046,3.121-3.389c0.677-1.129,1.595-2.204,1.22-3.693
		c-0.009-0.04,0.006-0.09,0.01-0.134c0.225-2.354,0.805-4.617,1.688-6.81C32.016,46.133,32.643,45.003,33.207,43.813z
		 M49.211,55.737c-0.009-0.015-0.021-0.028-0.03-0.046c-0.013,0.012-0.036,0.025-0.038,0.04c-0.001,0.014,0.019,0.031,0.028,0.046
		C49.184,55.765,49.198,55.749,49.211,55.737z"/>
	<path fill-rule="evenodd" clip-rule="evenodd" fill="#C0334B" d="M80.046,59.206c-0.621,0.598-1.224,1.218-1.864,1.793
		c-0.788,0.706-1.669,1.269-2.715,1.527c-1.247,0.312-1.836-0.132-1.867-1.396c-0.021-0.848,0.126-1.673,0.331-2.585
		c-0.443,0.18-0.616,0.531-0.854,0.792c-1,1.1-2.032,2.162-3.377,2.858c-0.511,0.264-1.057,0.419-1.628,0.479
		c-1.456,0.152-2.25-0.5-2.373-1.971c-0.079-0.919,0.038-1.82,0.24-2.714c0.655-2.914,1.854-5.627,3.049-8.34
		c2.034-4.615,4.428-9.056,6.676-13.567c0.762-1.53,1.498-3.075,2.199-4.634c0.313-0.698,0.688-1.408,0.513-2.225
		c-0.064-0.303,0.175-0.284,0.328-0.309c1.646-0.282,2.902,0.394,2.832,2.176c-0.064,1.729-0.803,3.263-1.482,4.806
		c-1.9,4.31-4.397,8.3-6.687,12.401c-1.702,3.045-3.566,6.005-4.953,9.217c-0.364,0.837-0.716,1.685-0.803,2.604
		c-0.096,1.021,0.446,1.434,1.433,1.115c0.715-0.233,1.274-0.721,1.789-1.23c2.344-2.334,4.143-5.033,5.302-8.135
		c0.257-0.689,0.523-1.418,0.17-2.189c-0.19-0.409,0.186-0.327,0.373-0.32c0.471,0.023,0.797-0.068,1.021-0.57
		c2.237-4.945,4.507-9.875,6.754-14.815c0.51-1.121,0.993-2.256,1.281-3.459c0.044-0.176,0.082-0.357,0.101-0.538
		c0.099-1.019,0.094-1.014,1.151-0.821c1.097,0.202,2.083,0.634,2.962,1.329c0.373,0.294,0.449,0.554,0.199,0.978
		c-2.496,4.25-4.813,8.598-7.057,12.984c-2.402,4.689-4.846,9.36-6.732,14.293c-0.178,0.465-0.328,0.953-0.413,1.441
		c-0.118,0.664,0.085,0.809,0.699,0.555c0.339-0.144,0.652-0.337,0.915-0.597c2.574-2.522,4.274-5.534,5.032-9.071
		c0.128-0.604,0.003-1.163-0.381-1.794c0.82,0,1.519,0.002,2.215-0.001c0.227-0.001,0.453,0.023,0.563-0.264
		c0.8-2.108,1.749-4.166,2.104-6.419c0.019-0.113,0.042-0.225,0.047-0.337c0.033-0.816,0.031-0.805,0.896-0.707
		c0.904,0.103,1.718,0.42,2.477,0.916c0.298,0.195,0.367,0.392,0.241,0.741c-0.269,0.765-0.681,1.481-0.863,2.338
		c0.341-0.071,0.419-0.332,0.556-0.513c0.796-1.056,1.568-2.137,2.607-2.977c1.384-1.117,4.027-0.053,4.313,1.726
		c0.024,0.148-0.011,0.318-0.063,0.463c-1.66,4.624-3.465,9.178-6.238,13.277c-0.688,1.021-1.449,1.98-2.368,2.848
		c0.323,0.182,0.573,0.044,0.782-0.09c3.536-2.268,6.093-5.308,7.359-9.36c0.109-0.353,0.153-0.74,0.022-1.078
		c-0.169-0.425-0.042-0.511,0.36-0.509c0.752,0.002,1.507-0.025,2.258-0.052c0.441-0.015,0.523,0.149,0.316,0.528
		c-2.4,4.396-5.246,8.403-9.663,11.02c-1.467,0.874-3.064,1.4-4.757,1.619c-1.544,0.202-1.892,0.011-2.627-1.422
		c-1.019,1.68-1.987,3.375-3.055,5.011c-1.554,2.377-3.351,4.558-5.67,6.253c-0.818,0.601-1.714,1.015-2.752,1.183
		c3.736-4.047,6.119-8.89,8.623-13.657c0.092-0.177,0.238-0.343,0.182-0.57c0.083-0.021,0.121-0.062,0.043-0.136
		C80.095,59.14,80.071,59.172,80.046,59.206z M83.604,60.594c0.003,0.429-0.021,0.796,0.36,0.972
		c0.396,0.182,0.647-0.114,0.883-0.348c0.256-0.257,0.494-0.536,0.712-0.829c1.895-2.556,3.316-5.392,4.701-8.24
		c1.195-2.458,2.35-4.939,3.071-7.59c0.115-0.423,0.401-1.038-0.028-1.251c-0.478-0.238-0.805,0.384-1.088,0.736
		c-1.141,1.424-2.11,2.97-3.086,4.511c-0.222,0.351-0.37,0.606,0.15,0.824c0.146,0.061,0.579,0.278,0.109,0.518
		c-1.114,0.565-1.769,1.567-2.38,2.572c-1.107,1.835-1.901,3.834-2.839,5.759C83.804,58.982,83.678,59.832,83.604,60.594z
		 M89.89,45.728c-0.012-0.017-0.024-0.034-0.036-0.051c-0.018,0.015-0.041,0.03-0.043,0.046c0,0.017,0.023,0.035,0.035,0.051
		C89.859,45.759,89.876,45.743,89.89,45.728z"/>
</g>
</svg>
